<mxfile host="app.diagrams.net" agent="Mozilla/5.0 (Windows NT 10.0; Win64; x64) AppleWebKit/537.36 (KHTML, like Gecko) Chrome/133.0.0.0 Safari/537.36" version="26.0.16">
  <diagram name="Page-1" id="a7904f86-f2b4-8e86-fa97-74104820619b">
    <mxGraphModel dx="1434" dy="780" grid="1" gridSize="10" guides="1" tooltips="1" connect="1" arrows="1" fold="1" page="1" pageScale="1" pageWidth="1100" pageHeight="850" background="none" math="0" shadow="0">
      <root>
        <mxCell id="0" />
        <mxCell id="1" parent="0" />
        <mxCell id="24794b860abc3c2d-41" style="edgeStyle=orthogonalEdgeStyle;rounded=0;html=1;exitX=1;exitY=0.25;entryX=-0.029;entryY=0.373;labelBackgroundColor=none;endArrow=none;endFill=0;endSize=8;fontFamily=Verdana;fontSize=12;align=left;entryDx=0;entryDy=0;entryPerimeter=0;" parent="1" source="24794b860abc3c2d-17" target="24794b860abc3c2d-19" edge="1">
          <mxGeometry relative="1" as="geometry" />
        </mxCell>
        <mxCell id="24794b860abc3c2d-17" value="&lt;p style=&quot;margin: 0px ; margin-top: 4px ; text-align: center ; text-decoration: underline&quot;&gt;&lt;b&gt;cat_cource&lt;/b&gt;&lt;/p&gt;&lt;hr&gt;&lt;p style=&quot;margin: 0px ; margin-left: 8px&quot;&gt;id_source_name&lt;/p&gt;" style="verticalAlign=top;align=left;overflow=fill;fontSize=12;fontFamily=Helvetica;html=1;rounded=0;shadow=0;comic=0;labelBackgroundColor=none;strokeWidth=1;fillColor=#dae8fc;strokeColor=#6c8ebf;" parent="1" vertex="1">
          <mxGeometry x="160" y="110" width="160" height="150" as="geometry" />
        </mxCell>
        <mxCell id="24794b860abc3c2d-19" value="&lt;p style=&quot;margin: 0px ; margin-top: 4px ; text-align: center ; text-decoration: underline&quot;&gt;&lt;b&gt;noticias&lt;/b&gt;&lt;/p&gt;&lt;hr&gt;&lt;p style=&quot;margin: 0px ; margin-left: 8px&quot;&gt;id_author&lt;br&gt;id_source_name&lt;br&gt;published_date&lt;/p&gt;&lt;p style=&quot;margin: 0px ; margin-left: 8px&quot;&gt;&lt;br&gt;&lt;/p&gt;" style="verticalAlign=top;align=left;overflow=fill;fontSize=12;fontFamily=Helvetica;html=1;rounded=0;shadow=0;comic=0;labelBackgroundColor=none;strokeWidth=1;fillColor=#dae8fc;strokeColor=#6c8ebf;" parent="1" vertex="1">
          <mxGeometry x="420" y="110" width="140" height="150" as="geometry" />
        </mxCell>
        <mxCell id="24794b860abc3c2d-47" style="edgeStyle=orthogonalEdgeStyle;rounded=0;html=1;exitX=0;exitY=0.25;entryX=1;entryY=0.25;labelBackgroundColor=none;endArrow=none;endFill=0;endSize=8;fontFamily=Verdana;fontSize=12;align=left;entryDx=0;entryDy=0;" parent="1" source="24794b860abc3c2d-22" target="24794b860abc3c2d-19" edge="1">
          <mxGeometry relative="1" as="geometry" />
        </mxCell>
        <mxCell id="24794b860abc3c2d-22" value="&lt;p style=&quot;margin: 0px ; margin-top: 4px ; text-align: center ; text-decoration: underline&quot;&gt;&lt;b&gt;cat_author&lt;/b&gt;&lt;/p&gt;&lt;hr&gt;&lt;p style=&quot;margin: 0px ; margin-left: 8px&quot;&gt;id&lt;br&gt;author&lt;/p&gt;&lt;p style=&quot;margin: 0px ; margin-left: 8px&quot;&gt;&lt;br&gt;&lt;/p&gt;" style="verticalAlign=top;align=left;overflow=fill;fontSize=12;fontFamily=Helvetica;html=1;rounded=0;shadow=0;comic=0;labelBackgroundColor=none;strokeWidth=1;fillColor=#dae8fc;strokeColor=#6c8ebf;" parent="1" vertex="1">
          <mxGeometry x="660" y="110" width="140" height="150" as="geometry" />
        </mxCell>
        <mxCell id="I8bBSr0hOX7KLGyMenc0-1" style="edgeStyle=orthogonalEdgeStyle;rounded=0;html=1;entryX=-0.029;entryY=0.373;labelBackgroundColor=none;endArrow=none;endFill=0;endSize=8;fontFamily=Verdana;fontSize=12;align=left;entryDx=0;entryDy=0;entryPerimeter=0;" edge="1" parent="1" target="I8bBSr0hOX7KLGyMenc0-3">
          <mxGeometry relative="1" as="geometry">
            <mxPoint x="320" y="150" as="sourcePoint" />
            <Array as="points">
              <mxPoint x="320" y="151" />
              <mxPoint x="350" y="151" />
              <mxPoint x="350" y="356" />
            </Array>
          </mxGeometry>
        </mxCell>
        <mxCell id="I8bBSr0hOX7KLGyMenc0-3" value="&lt;p style=&quot;text-align: center; margin: 4px 0px 0px;&quot;&gt;&lt;span style=&quot;background-color: transparent; text-align: left;&quot;&gt;&lt;b&gt;&lt;u&gt;abt_noticias_resumen&lt;/u&gt;&lt;/b&gt;&lt;/span&gt;&lt;/p&gt;&lt;hr&gt;&lt;p style=&quot;margin: 0px ; margin-left: 8px&quot;&gt;id_author&lt;br&gt;id_source_name&lt;br&gt;published_date&lt;/p&gt;&lt;p style=&quot;margin: 0px ; margin-left: 8px&quot;&gt;total_news&lt;/p&gt;&lt;p style=&quot;margin: 0px ; margin-left: 8px&quot;&gt;min_published_date&lt;/p&gt;&lt;p style=&quot;margin: 0px ; margin-left: 8px&quot;&gt;max_published_date&lt;/p&gt;&lt;p style=&quot;margin: 0px ; margin-left: 8px&quot;&gt;published_date&lt;/p&gt;&lt;p style=&quot;margin: 0px ; margin-left: 8px&quot;&gt;&lt;br&gt;&lt;/p&gt;" style="verticalAlign=top;align=left;overflow=fill;fontSize=12;fontFamily=Helvetica;html=1;rounded=0;shadow=0;comic=0;labelBackgroundColor=none;strokeWidth=1;fillColor=#dae8fc;strokeColor=#6c8ebf;" vertex="1" parent="1">
          <mxGeometry x="420" y="300" width="140" height="150" as="geometry" />
        </mxCell>
        <mxCell id="I8bBSr0hOX7KLGyMenc0-4" style="edgeStyle=orthogonalEdgeStyle;rounded=0;html=1;entryX=1;entryY=0.25;labelBackgroundColor=none;endArrow=none;endFill=0;endSize=8;fontFamily=Verdana;fontSize=12;align=left;entryDx=0;entryDy=0;" edge="1" parent="1" target="I8bBSr0hOX7KLGyMenc0-3">
          <mxGeometry relative="1" as="geometry">
            <mxPoint x="660" y="150" as="sourcePoint" />
          </mxGeometry>
        </mxCell>
      </root>
    </mxGraphModel>
  </diagram>
</mxfile>
